<?xml version="1.0" standalone="no"?>
<!DOCTYPE svg PUBLIC "-//W3C//DTD SVG 20010904//EN"
 "http://www.w3.org/TR/2001/REC-SVG-20010904/DTD/svg10.dtd">
<svg version="1.0" xmlns="http://www.w3.org/2000/svg"
 width="512.000000pt" height="512.000000pt" viewBox="0 0 512.000000 512.000000"
 preserveAspectRatio="xMidYMid meet">
<metadata>
Created by potrace 1.14, written by Peter Selinger 2001-2017
</metadata>
<g transform="translate(0.000000,512.000000) scale(0.100000,-0.100000)"
fill="#000000" stroke="none">
<path d="M0 2560 l0 -2560 2560 0 2560 0 0 2560 0 2560 -2560 0 -2560 0 0
-2560z m2835 1801 c333 -62 658 -218 883 -424 24 -21 47 -35 51 -31 4 5 29 64
55 132 51 130 65 152 97 152 41 0 55 -21 114 -174 l60 -156 155 -61 c85 -34
161 -68 168 -77 17 -23 15 -56 -6 -75 -10 -9 -83 -42 -163 -73 -79 -31 -148
-60 -152 -64 -5 -4 21 -68 57 -141 355 -724 207 -1573 -372 -2131 -255 -245
-561 -405 -918 -479 -129 -26 -440 -37 -581 -19 -653 81 -1223 520 -1467 1128
-220 548 -167 1162 142 1660 217 350 560 623 953 760 102 36 283 77 394 91
125 15 402 6 530 -18z"/>
<path d="M2247 4274 c-757 -117 -1340 -709 -1453 -1476 -22 -153 -15 -438 16
-583 159 -752 763 -1301 1522 -1384 233 -26 465 -2 703 71 114 35 113 36 -33
62 -319 57 -658 251 -876 502 -186 216 -304 455 -368 746 -19 88 -22 132 -22
308 0 227 14 320 75 502 203 604 752 1030 1389 1077 l95 7 -75 36 c-110 52
-278 103 -419 127 -147 25 -412 27 -554 5z"/>
<path d="M3881 3919 c-24 -63 -48 -119 -53 -126 -5 -6 -63 -33 -129 -59 l-120
-48 116 -46 c63 -25 121 -52 129 -60 7 -8 32 -62 54 -120 22 -58 44 -105 48
-105 3 0 25 48 48 107 22 59 48 114 56 122 8 7 66 33 128 57 63 24 110 45 105
47 -4 1 -60 24 -123 50 l-115 47 -47 115 c-26 63 -49 119 -51 124 -1 5 -23
-42 -46 -105z"/>
<path d="M3150 4000 c-720 -87 -1272 -663 -1319 -1375 -29 -447 121 -848 434
-1160 264 -264 599 -414 961 -432 l112 -6 78 48 c84 51 198 135 191 141 -2 2
-40 11 -85 19 -317 60 -609 243 -805 504 -457 609 -306 1482 328 1896 163 107
334 173 520 202 l107 16 -23 19 c-13 11 -56 44 -95 74 l-71 55 -129 4 c-71 2
-163 0 -204 -5z"/>
<path d="M3329 3691 c-407 -161 -684 -489 -776 -921 -25 -117 -24 -362 1 -480
82 -382 324 -697 668 -871 118 -59 320 -115 437 -120 l54 -3 68 75 c38 41 68
79 69 84 0 6 -41 51 -91 100 -216 213 -329 404 -395 668 -35 139 -44 376 -20
522 43 259 171 515 354 708 31 31 53 59 51 61 -2 2 -70 29 -151 61 -81 31
-154 65 -164 76 -11 13 -15 28 -11 49 4 16 5 30 4 30 -1 0 -45 -18 -98 -39z"/>
<path d="M3730 3368 c-213 -242 -320 -522 -320 -839 0 -363 156 -702 429 -936
l75 -64 54 83 c279 424 356 970 205 1453 -28 91 -111 292 -123 300 -4 3 -22
-31 -40 -76 -37 -90 -51 -109 -84 -109 -34 0 -53 28 -95 136 -21 54 -42 99
-47 101 -5 1 -29 -21 -54 -49z"/>
</g>
</svg>
